<mxfile host="app.diagrams.net" modified="2020-11-08T09:00:22.796Z" agent="5.0 (Windows NT 10.0; Win64; x64) AppleWebKit/537.36 (KHTML, like Gecko) Chrome/86.0.4240.183 Safari/537.36" etag="1eY4KP0iXieNaixzlpfk" version="13.9.2" type="github">
  <diagram id="E77og2pdK-247U2hi702" name="Page-1">
    <mxGraphModel dx="1038" dy="548" grid="1" gridSize="10" guides="1" tooltips="1" connect="1" arrows="1" fold="1" page="1" pageScale="1" pageWidth="850" pageHeight="1100" math="0" shadow="0">
      <root>
        <mxCell id="0" />
        <mxCell id="1" parent="0" />
        <mxCell id="3-A5J_AdiHNcu_Qcr7wP-8" style="edgeStyle=orthogonalEdgeStyle;rounded=0;orthogonalLoop=1;jettySize=auto;html=1;entryX=0.5;entryY=0;entryDx=0;entryDy=0;fontSize=22;strokeColor=#006658;fontColor=#5C5C5C;" edge="1" parent="1" source="3-A5J_AdiHNcu_Qcr7wP-4" target="3-A5J_AdiHNcu_Qcr7wP-5">
          <mxGeometry relative="1" as="geometry">
            <Array as="points">
              <mxPoint x="510" y="150" />
              <mxPoint x="510" y="150" />
            </Array>
          </mxGeometry>
        </mxCell>
        <mxCell id="3-A5J_AdiHNcu_Qcr7wP-4" value="home" style="rounded=1;whiteSpace=wrap;html=1;strokeWidth=2;fontSize=22;fillColor=#e1d5e7;strokeColor=#9673a6;" vertex="1" parent="1">
          <mxGeometry x="450" y="30" width="120" height="60" as="geometry" />
        </mxCell>
        <mxCell id="3-A5J_AdiHNcu_Qcr7wP-5" value="blog" style="rounded=1;whiteSpace=wrap;html=1;strokeWidth=2;fontSize=22;fillColor=#21C0A5;strokeColor=#006658;fontColor=#5C5C5C;" vertex="1" parent="1">
          <mxGeometry x="450" y="190" width="120" height="60" as="geometry" />
        </mxCell>
        <mxCell id="3-A5J_AdiHNcu_Qcr7wP-6" value="about" style="rounded=1;whiteSpace=wrap;html=1;strokeWidth=2;fontSize=22;fillColor=#21C0A5;strokeColor=#006658;fontColor=#5C5C5C;" vertex="1" parent="1">
          <mxGeometry x="230" y="190" width="120" height="60" as="geometry" />
        </mxCell>
        <mxCell id="3-A5J_AdiHNcu_Qcr7wP-7" value="contact" style="rounded=1;whiteSpace=wrap;html=1;strokeWidth=2;fontSize=22;fillColor=#21C0A5;strokeColor=#006658;fontColor=#5C5C5C;" vertex="1" parent="1">
          <mxGeometry x="670" y="190" width="120" height="60" as="geometry" />
        </mxCell>
        <mxCell id="3-A5J_AdiHNcu_Qcr7wP-9" value="" style="endArrow=classic;startArrow=classic;html=1;fontSize=22;entryX=0.5;entryY=0;entryDx=0;entryDy=0;exitX=0.597;exitY=0.017;exitDx=0;exitDy=0;exitPerimeter=0;strokeColor=#006658;fontColor=#5C5C5C;" edge="1" parent="1" source="3-A5J_AdiHNcu_Qcr7wP-7" target="3-A5J_AdiHNcu_Qcr7wP-6">
          <mxGeometry width="50" height="50" relative="1" as="geometry">
            <mxPoint x="350" y="290" as="sourcePoint" />
            <mxPoint x="300" y="150" as="targetPoint" />
            <Array as="points">
              <mxPoint x="742" y="150" />
              <mxPoint x="510" y="150" />
              <mxPoint x="290" y="150" />
            </Array>
          </mxGeometry>
        </mxCell>
        <mxCell id="3-A5J_AdiHNcu_Qcr7wP-10" value="" style="endArrow=classic;html=1;fontSize=22;entryX=0.5;entryY=1;entryDx=0;entryDy=0;exitX=0.5;exitY=1;exitDx=0;exitDy=0;strokeColor=#006658;fontColor=#5C5C5C;" edge="1" parent="1" source="3-A5J_AdiHNcu_Qcr7wP-6" target="3-A5J_AdiHNcu_Qcr7wP-5">
          <mxGeometry width="50" height="50" relative="1" as="geometry">
            <mxPoint x="350" y="290" as="sourcePoint" />
            <mxPoint x="400" y="240" as="targetPoint" />
            <Array as="points">
              <mxPoint x="290" y="320" />
              <mxPoint x="400" y="320" />
              <mxPoint x="510" y="320" />
            </Array>
          </mxGeometry>
        </mxCell>
        <mxCell id="3-A5J_AdiHNcu_Qcr7wP-11" value="" style="endArrow=classic;html=1;fontSize=22;entryX=0.5;entryY=1;entryDx=0;entryDy=0;exitX=0.577;exitY=1.043;exitDx=0;exitDy=0;exitPerimeter=0;strokeColor=#006658;fontColor=#5C5C5C;" edge="1" parent="1" source="3-A5J_AdiHNcu_Qcr7wP-7" target="3-A5J_AdiHNcu_Qcr7wP-5">
          <mxGeometry width="50" height="50" relative="1" as="geometry">
            <mxPoint x="350" y="290" as="sourcePoint" />
            <mxPoint x="400" y="240" as="targetPoint" />
            <Array as="points">
              <mxPoint x="739" y="320" />
              <mxPoint x="640" y="320" />
              <mxPoint x="510" y="320" />
            </Array>
          </mxGeometry>
        </mxCell>
        <mxCell id="3-A5J_AdiHNcu_Qcr7wP-12" value="" style="endArrow=classic;html=1;fontSize=22;entryX=0;entryY=0.5;entryDx=0;entryDy=0;exitX=1;exitY=0.5;exitDx=0;exitDy=0;strokeColor=#006658;fontColor=#5C5C5C;" edge="1" parent="1" source="3-A5J_AdiHNcu_Qcr7wP-5" target="3-A5J_AdiHNcu_Qcr7wP-7">
          <mxGeometry width="50" height="50" relative="1" as="geometry">
            <mxPoint x="350" y="290" as="sourcePoint" />
            <mxPoint x="400" y="240" as="targetPoint" />
            <Array as="points" />
          </mxGeometry>
        </mxCell>
        <mxCell id="3-A5J_AdiHNcu_Qcr7wP-13" value="" style="endArrow=classic;html=1;fontSize=22;entryX=0;entryY=0.5;entryDx=0;entryDy=0;exitX=1;exitY=0.5;exitDx=0;exitDy=0;strokeColor=#006658;fontColor=#5C5C5C;" edge="1" parent="1" source="3-A5J_AdiHNcu_Qcr7wP-6" target="3-A5J_AdiHNcu_Qcr7wP-5">
          <mxGeometry width="50" height="50" relative="1" as="geometry">
            <mxPoint x="350" y="290" as="sourcePoint" />
            <mxPoint x="400" y="240" as="targetPoint" />
          </mxGeometry>
        </mxCell>
      </root>
    </mxGraphModel>
  </diagram>
</mxfile>
